<svg xmlns="http://www.w3.org/2000/svg" width="720" height="720" viewBox="0 0 720 720" role="img" aria-label="L Cafe product placeholder">
  <defs>
    <linearGradient id="bg" x1="0" y1="0" x2="1" y2="1">
      <stop offset="0" stop-color="#f4f1eb"/>
      <stop offset="1" stop-color="#e7dcda"/>
    </linearGradient>
    <linearGradient id="cup" x1="0" y1="0" x2="0" y2="1">
      <stop offset="0" stop-color="#ffffff"/>
      <stop offset="1" stop-color="#d8cbc7"/>
    </linearGradient>
  </defs>
  <rect width="720" height="720" fill="#471019"/>
  <circle cx="128" cy="110" r="130" fill="#651b28" opacity=".65"/>
  <circle cx="620" cy="642" r="178" fill="#651b28" opacity=".55"/>
  <rect x="86" y="82" width="548" height="556" rx="44" fill="url(#bg)"/>
  <path d="M241 251h236l-34 257c-4 30-29 52-60 52h-48c-31 0-56-22-60-52l-34-257Z" fill="url(#cup)" stroke="#471019" stroke-width="8"/>
  <path d="M264 251h190l-10-74c-4-31-30-54-62-54h-46c-32 0-58 23-62 54l-10 74Z" fill="#f7f0ed" stroke="#471019" stroke-width="8"/>
  <path d="M292 324c35 18 96 20 136 0" fill="none" stroke="#471019" stroke-width="10" stroke-linecap="round"/>
  <text x="360" y="410" text-anchor="middle" font-family="Georgia, serif" font-size="54" font-weight="700" fill="#471019">L</text>
  <text x="360" y="474" text-anchor="middle" font-family="Arial, sans-serif" font-size="20" letter-spacing="8" fill="#747973">CAFE</text>
  <text x="360" y="612" text-anchor="middle" font-family="Arial, sans-serif" font-size="18" letter-spacing="5" fill="#f4f1eb">PRODUCT IMAGE</text>
</svg>
